<svg width="65" height="65" viewBox="0 0 65 65" fill="none" xmlns="http://www.w3.org/2000/svg">
<g id="HamburgerIcon">
<path id="Vector" d="M11.2671 19.5H50.2671C50.9847 19.5 51.5671 18.9189 51.5671 18.2C51.5671 17.4811 50.9847 16.9 50.2671 16.9H11.2671C10.5495 16.9 9.9671 17.4811 9.9671 18.2C9.9671 18.9189 10.5482 19.5 11.2671 19.5Z" fill="#66FCF1"/>
<path id="Vector_2" d="M11.2671 48.1H50.2671C50.9847 48.1 51.5671 47.5189 51.5671 46.8C51.5671 46.0811 50.9847 45.5 50.2671 45.5H11.2671C10.5495 45.5 9.9671 46.0811 9.9671 46.8C9.9671 47.5189 10.5482 48.1 11.2671 48.1Z" fill="#66FCF1"/>
<path id="Vector_3" d="M11.2671 33.8H50.2671C50.9847 33.8 51.5671 33.2189 51.5671 32.5C51.5671 31.7811 50.9847 31.2 50.2671 31.2H11.2671C10.5495 31.2 9.9671 31.7811 9.9671 32.5C9.9671 33.2189 10.5482 33.8 11.2671 33.8Z" fill="#66FCF1"/>
</g>
</svg>
