<svg width="49" height="45" viewBox="0 0 49 45" fill="none" xmlns="http://www.w3.org/2000/svg">
<g id="InstaIcon">
<g id="SVGRepo_iconCarrier">
<path id="Vector" fill-rule="evenodd" clip-rule="evenodd" d="M31.0741 6.23077H15.9769C10.4183 6.23077 5.91217 10.4521 5.91217 15.6593V29.8022C5.91217 35.0094 10.4183 39.2308 15.9769 39.2308H31.0741C36.6326 39.2308 41.1389 35.0094 41.1389 29.8022V15.6593C41.1389 10.4521 36.6326 6.23077 31.0741 6.23077Z" stroke="#C5C6C7" stroke-width="1.5" stroke-linecap="round" stroke-linejoin="round"/>
<path id="Vector_2" fill-rule="evenodd" clip-rule="evenodd" d="M23.5256 29.8022C19.3565 29.8022 15.977 26.6363 15.977 22.7308C15.977 18.8252 19.3565 15.6593 23.5256 15.6593C27.6947 15.6593 31.0742 18.8252 31.0742 22.7308C31.0742 24.6061 30.2788 26.4048 28.8632 27.731C27.4476 29.0571 25.5275 29.8022 23.5256 29.8022Z" stroke="#C5C6C7" stroke-width="1.5" stroke-linecap="round" stroke-linejoin="round"/>
<path id="Vector_3" d="M33.5904 10.945C32.2007 10.945 31.0742 12.0004 31.0742 13.3022C31.0742 14.604 32.2007 15.6593 33.5904 15.6593C34.98 15.6593 36.1065 14.604 36.1065 13.3022C36.1065 12.0004 34.98 10.945 33.5904 10.945Z" fill="#C5C6C7"/>
<path id="Vector_4" d="M33.5903 12.1236C32.8955 12.1236 32.3322 12.6513 32.3322 13.3022C32.3322 13.9531 32.8955 14.4808 33.5903 14.4808C34.2851 14.4808 34.8484 13.9531 34.8484 13.3022C34.8484 12.6513 34.2851 12.1236 33.5903 12.1236Z" stroke="#C5C6C7" stroke-linecap="round"/>
</g>
</g>
</svg>
