<svg width="60" height="60" viewBox="0 0 60 60" fill="none" xmlns="http://www.w3.org/2000/svg">
<g clip-path="url(#clip0_5_3)">
<path d="M19.5998 28.8267C19.1863 30.7178 17.4993 32.1382 15.486 32.1382C14.9492 32.1382 14.514 32.5733 14.514 33.1102C14.514 33.647 14.9492 34.0821 15.486 34.0821C18.5668 34.0821 21.126 31.8069 21.5723 28.8485C23.4586 28.6445 25.1999 27.804 26.5479 26.4281C26.9235 26.0447 26.9172 25.4293 26.5337 25.0537C26.1504 24.6783 25.535 24.6842 25.1593 25.0677C23.9672 26.2845 22.3728 26.9547 20.6696 26.9547C17.2039 26.9547 14.3845 24.1352 14.3845 20.6696C14.3845 20.1327 13.9493 19.6976 13.4125 19.6976C12.8758 19.6976 12.4406 20.1327 12.4406 20.6696C12.4406 24.8443 15.5662 28.3003 19.5998 28.8267Z" fill="#66FCF1" stroke="#66FCF1" stroke-width="0.431965"/>
<path d="M23.7149 37.257C23.7149 36.7201 23.2798 36.2851 22.743 36.2851C18.2055 36.2851 14.514 39.9766 14.514 44.514C14.514 44.5609 14.5157 44.608 14.5165 44.655C14.1551 44.6063 13.787 44.5788 13.4125 44.5788C12.8758 44.5788 12.4406 45.0139 12.4406 45.5508C12.4406 46.0876 12.8758 46.5227 13.4125 46.5227C16.8782 46.5227 19.6976 49.3422 19.6976 52.8078C19.6976 53.3447 20.1328 53.7797 20.6696 53.7797C21.2063 53.7797 21.6415 53.3447 21.6415 52.8078C21.6415 49.3593 19.5082 46.4013 16.4928 45.1792C16.4697 44.959 16.4579 44.7363 16.4579 44.514C16.4579 41.0484 19.2774 38.2289 22.743 38.2289C23.2798 38.2289 23.7149 37.7939 23.7149 37.257Z" fill="#66FCF1" stroke="#66FCF1" stroke-width="0.431965"/>
<path d="M56.8899 28.9633C56.8899 26.7505 56.0061 24.6536 54.4439 23.1115C54.6912 22.32 54.8164 21.5013 54.8164 20.6695C54.8164 16.6686 51.9458 13.3271 48.1563 12.5924C48.4459 11.8704 48.5961 11.0965 48.5961 10.3024C48.5961 7.76799 47.0562 5.587 44.8632 4.64436C41.2094 1.7343 37.2132 0 34.1469 0C32.4424 0 30.9309 0.838186 30 2.1232C29.0692 0.838186 27.5576 0 25.8531 0C22.7868 0 18.7906 1.7343 15.1369 4.64436C12.9438 5.587 11.4039 7.76799 11.4039 10.3024C11.4039 11.0965 11.5541 11.8704 11.8437 12.5924C8.05427 13.3271 5.1836 16.6686 5.1836 20.6695C5.1836 21.5013 5.30866 22.3199 5.55617 23.1115C3.99397 24.6536 3.11017 26.7505 3.11017 28.9633C3.11017 30.693 3.64784 32.2991 4.56326 33.6253C3.61194 35.0005 3.11017 36.6047 3.11017 38.2937C3.11017 41.2857 4.74131 44.027 7.3239 45.4725C7.27946 45.8421 7.25704 46.215 7.25704 46.5875C7.25704 50.6234 9.88965 54.1917 13.7093 55.4077C15.3708 58.2512 18.3972 60 21.7063 60C25.3341 60 28.4798 57.9031 30 54.8587C31.5202 57.9031 34.6659 60 38.2937 60C41.6028 60 44.6293 58.2512 46.2907 55.4077C50.1104 54.1915 52.743 50.6233 52.743 46.5875C52.743 46.215 52.7206 45.8421 52.6761 45.4725C55.2587 44.027 56.8899 41.2857 56.8899 38.2937C56.8899 36.6047 56.3881 35.0005 55.4368 33.6253C56.3522 32.2991 56.8899 30.693 56.8899 28.9633ZM21.7063 58.0562C18.9811 58.0562 16.4979 56.5537 15.2256 54.1353C15.0995 53.8957 14.8795 53.7196 14.6181 53.6492C11.4285 52.7908 9.20088 49.887 9.20088 46.5875C9.20088 46.0937 9.25064 45.5992 9.34874 45.1174C9.43971 44.6707 9.20788 44.2206 8.79125 44.0353C6.52097 43.0261 5.05401 40.7723 5.05401 38.2937C5.05401 37.1664 5.34637 36.0889 5.90425 35.1345C7.35514 36.4137 9.25738 37.1922 11.3391 37.1922C11.8759 37.1922 12.311 36.7572 12.311 36.2203C12.311 35.6834 11.8759 35.2484 11.3391 35.2484C7.87349 35.2484 5.05401 32.4289 5.05401 28.9633C5.05401 27.0977 5.87717 25.3394 7.3125 24.1398C7.63647 23.869 7.74857 23.42 7.58982 23.0287C7.28295 22.2724 7.12745 21.4787 7.12745 20.6695C7.12745 17.2039 9.94693 14.3844 13.4125 14.3844C16.8782 14.3844 19.6976 17.2039 19.6976 20.6695C19.6976 21.2064 20.1328 21.6415 20.6696 21.6415C21.2063 21.6415 21.6415 21.2064 21.6415 20.6695C21.6415 16.3099 18.233 12.7331 13.9411 12.4594C13.5521 11.8091 13.3477 11.0697 13.3477 10.3024C13.3477 8.56989 14.3995 7.07883 15.8978 6.43296C15.9557 6.41572 16.0125 6.39317 16.0673 6.36466C16.5315 6.18816 17.0342 6.09071 17.5594 6.09071C19.1867 6.09071 20.6394 7.00056 21.3507 8.46544C21.5852 8.94842 22.1668 9.14981 22.6496 8.91512C23.1324 8.68069 23.3338 8.09922 23.0992 7.61637C22.2872 5.94428 20.7504 4.74246 18.9806 4.31676C21.4612 2.80315 23.9033 1.94384 25.8531 1.94384C27.6038 1.94384 29.0281 3.36803 29.0281 5.11879V17.6956C28.1548 17.0028 27.0519 16.5875 25.8531 16.5875C25.3164 16.5875 24.8812 17.0225 24.8812 17.5594C24.8812 18.0963 25.3164 18.5313 25.8531 18.5313C27.6038 18.5313 29.0281 19.9555 29.0281 21.7063V45.0686C27.8197 43.5095 26.1161 42.3328 24.1121 41.7943C23.5939 41.6556 23.0606 41.9624 22.9213 42.4808C22.782 42.9993 23.0894 43.5324 23.6077 43.6716C26.7992 44.5291 29.0281 47.4333 29.0281 50.7343C29.0281 54.7716 25.7435 58.0562 21.7063 58.0562ZM51.2088 44.0355C50.7922 44.2208 50.5603 44.6707 50.6513 45.1175C50.7494 45.5994 50.7991 46.0939 50.7991 46.5876C50.7991 49.8871 48.5715 52.7909 45.3819 53.6493C45.1205 53.7197 44.9004 53.8958 44.7744 54.1354C43.5021 56.5537 41.0189 58.0562 38.2937 58.0562C34.2565 58.0562 30.9719 54.7716 30.9719 50.7343C30.9719 50.461 30.9592 50.1901 30.9355 49.9217C30.9586 49.8386 30.9719 49.7514 30.9719 49.661V17.5594C30.9719 15.8086 32.3963 14.3844 34.1469 14.3844C34.6836 14.3844 35.1188 13.9494 35.1188 13.4125C35.1188 12.8756 34.6836 12.4406 34.1469 12.4406C32.9482 12.4406 31.8452 12.8559 30.9719 13.5487V5.11879C30.9719 3.36803 32.3963 1.94384 34.1469 1.94384C36.0967 1.94384 38.5388 2.80315 41.0194 4.31676C39.2496 4.74233 37.7128 5.94428 36.9008 7.61637C36.6662 8.09935 36.8676 8.68082 37.3505 8.91512C37.8333 9.14968 38.4148 8.94842 38.6493 8.46544C39.3607 7.00056 40.8134 6.09071 42.4406 6.09071C42.9658 6.09071 43.4687 6.18816 43.9327 6.36466C43.9874 6.39317 44.0442 6.41559 44.1018 6.43283C45.6004 7.0787 46.6523 8.56976 46.6523 10.3024C46.6523 11.0697 46.4479 11.8091 46.0589 12.4594C41.767 12.7331 38.3585 16.3099 38.3585 20.6695C38.3585 21.2064 38.7937 21.6415 39.3305 21.6415C39.8672 21.6415 40.3024 21.2064 40.3024 20.6695C40.3024 17.2039 43.1219 14.3844 46.5875 14.3844C50.0531 14.3844 52.8726 17.2039 52.8726 20.6695C52.8726 21.4787 52.7171 22.2724 52.4103 23.0287C52.2516 23.4201 52.3637 23.869 52.6877 24.1398C54.1229 25.3394 54.946 27.0977 54.946 28.9633C54.946 32.4289 52.1265 35.2484 48.6609 35.2484C48.1242 35.2484 47.689 35.6834 47.689 36.2203C47.689 36.7572 48.1242 37.1922 48.6609 37.1922C50.7426 37.1922 52.6449 36.4137 54.0958 35.1345C54.6538 36.0889 54.946 37.1664 54.946 38.2937C54.946 40.7723 53.4791 43.0261 51.2088 44.0355Z" fill="#66FCF1" stroke="#66FCF1" stroke-width="0.431965"/>
<path d="M46.5875 31.1015C44.5742 31.1015 42.8872 29.6811 42.4737 27.79C46.5073 27.2636 49.6328 23.8076 49.6328 19.6328C49.6328 19.096 49.1977 18.6609 48.6609 18.6609C48.1242 18.6609 47.689 19.096 47.689 19.6328C47.689 23.0985 44.8695 25.9179 41.4039 25.9179C39.7007 25.9179 38.1062 25.2478 36.9141 24.031C36.5386 23.6477 35.9232 23.6413 35.5397 24.017C35.1563 24.3927 35.1499 25.008 35.5256 25.3914C36.8736 26.7673 38.6149 27.6078 40.5012 27.8118C40.9475 30.7702 43.5066 33.0454 46.5875 33.0454C47.1243 33.0454 47.5594 32.6103 47.5594 32.0734C47.5594 31.5366 47.1243 31.1015 46.5875 31.1015Z" fill="#66FCF1" stroke="#66FCF1" stroke-width="0.431965"/>
<path d="M43.4774 42.5054C43.1029 42.5054 42.7348 42.5329 42.3734 42.5816C42.3742 42.5346 42.3759 42.4875 42.3759 42.4406C42.3759 37.9032 38.6844 34.2117 34.1469 34.2117C33.6101 34.2117 33.175 34.6467 33.175 35.1836C33.175 35.7205 33.6101 36.1555 34.1469 36.1555C37.6125 36.1555 40.432 38.975 40.432 42.4406C40.432 42.6627 40.4202 42.8856 40.3971 43.1058C37.3817 44.3278 35.2484 47.2858 35.2484 50.7343C35.2484 51.2712 35.6836 51.7063 36.2203 51.7063C36.7571 51.7063 37.1923 51.2712 37.1923 50.7343C37.1923 47.2687 40.0117 44.4493 43.4774 44.4493C44.0141 44.4493 44.4493 44.0142 44.4493 43.4773C44.4493 42.9404 44.0141 42.5054 43.4774 42.5054Z" fill="#66FCF1" stroke="#66FCF1" stroke-width="0.431965"/>
</g>
<defs>
<clipPath id="clip0_5_3">
<rect width="60" height="60" fill="white"/>
</clipPath>
</defs>
</svg>
