<svg width="49" height="45" viewBox="0 0 49 45" fill="none" xmlns="http://www.w3.org/2000/svg">
<g id="TwitterIcon">
<g id="SVGRepo_iconCarrier">
<path id="Vector" d="M38.7694 15.5156V16.4531C38.7694 25.8937 31.1236 36.7125 17.133 36.7125C13.0028 36.7208 8.9603 35.5965 5.50415 33.4781C6.10438 33.5545 6.70984 33.5889 7.31552 33.5812C10.7391 33.5901 14.0665 32.5202 16.7627 30.5437C15.1722 30.5218 13.6295 30.0307 12.3539 29.1404C11.0783 28.2501 10.1348 27.0058 9.6573 25.5844C10.1311 25.6785 10.6141 25.7256 11.0984 25.725C11.7747 25.7251 12.4479 25.64 13.0999 25.4719C11.3772 25.1501 9.82734 24.2776 8.71558 23.0035C7.60382 21.7295 6.99924 20.1331 7.00529 18.4875V18.3937C8.05929 18.9453 9.24095 19.2478 10.4479 19.275C8.84128 18.2846 7.69899 16.7568 7.25445 15.0039C6.8099 13.251 7.09664 11.4052 8.05608 9.84374C9.96779 12.0464 12.3529 13.8475 15.0564 15.1299C17.7599 16.4124 20.7213 17.1475 23.748 17.2875C23.5981 16.7554 23.5274 16.2065 23.5378 15.6562C23.4815 14.2021 23.9049 12.767 24.7504 11.5464C25.596 10.3258 26.8226 9.37894 28.2632 8.83482C29.7038 8.2907 31.2884 8.17573 32.8013 8.50556C34.3141 8.8354 35.6817 9.59402 36.7178 10.6781C38.4209 10.3561 40.0546 9.76995 41.5515 8.94374C40.9838 10.6231 39.7762 12.0481 38.1589 12.9469C39.6696 12.7518 41.1425 12.354 42.5322 11.7656C41.5251 13.2146 40.251 14.4844 38.7694 15.5156Z" stroke="#C5C6C7" stroke-linecap="round" stroke-linejoin="round"/>
</g>
</g>
</svg>
